<svg width="22" height="23" viewBox="0 0 22 23" fill="none" xmlns="http://www.w3.org/2000/svg">
<path d="M15.2437 13.2316L15.6617 12.8164L14.691 11.841L14.2748 12.2563L15.2437 13.2316ZM17.0633 12.6422L18.8151 13.5946L19.4705 12.3865L17.7197 11.435L17.0633 12.6422ZM19.1515 15.4866L17.8498 16.7819L18.8187 17.7563L20.1204 16.462L19.1515 15.4866ZM17.056 17.198C15.7268 17.3227 12.2893 17.2118 8.56582 13.5103L7.59598 14.4847C11.6587 18.5245 15.5261 18.7225 17.1843 18.5675L17.056 17.198ZM8.56582 13.5103C5.0174 9.98113 4.4289 7.01388 4.35557 5.72596L2.9824 5.80388C3.07407 7.42455 3.80282 10.7135 7.59598 14.4847L8.56582 13.5103ZM9.82623 7.8453L10.0893 7.58313L9.12132 6.60871L8.85823 6.86996L9.82623 7.8453ZM10.2983 4.25105L9.14332 2.70738L8.0424 3.53238L9.1974 5.07513L10.2983 4.25105ZM5.25573 2.37096L3.81657 3.80096L4.7864 4.7763L6.22465 3.3463L5.25573 2.37096ZM9.34223 7.35763C8.8564 6.86996 8.8564 6.86996 8.8564 6.8718H8.85457L8.85182 6.87546C8.80854 6.91964 8.76956 6.96783 8.7354 7.01938C8.6859 7.09271 8.63182 7.18896 8.58598 7.31088C8.47436 7.62559 8.44656 7.96392 8.50532 8.29263C8.62815 9.08555 9.17449 10.1333 10.5733 11.5248L11.5432 10.5495C10.2332 9.2478 9.92157 8.4558 9.86382 8.0818C9.83632 7.90396 9.86474 7.81596 9.87299 7.7958C9.87757 7.78296 9.8794 7.78205 9.87299 7.7903C9.8649 7.80301 9.8557 7.81497 9.84548 7.82605L9.83632 7.83521C9.83335 7.83806 9.8303 7.84082 9.82715 7.84346L9.34223 7.35763ZM10.5733 11.5248C11.9731 12.9163 13.0263 13.459 13.8202 13.58C14.2262 13.6423 14.5535 13.5928 14.8019 13.5002C14.9408 13.4488 15.0707 13.3758 15.1869 13.2839C15.2027 13.2707 15.218 13.2569 15.2327 13.2426L15.2392 13.2371L15.2419 13.2344L15.2428 13.2325C15.2428 13.2325 15.2437 13.2316 14.7588 12.744C14.273 12.2563 14.2757 12.2554 14.2757 12.2554L14.2776 12.2535L14.2794 12.2517L14.2849 12.2471L14.2941 12.238C14.3051 12.2281 14.3167 12.2189 14.3289 12.2105C14.3381 12.204 14.3353 12.2068 14.3225 12.2123C14.2996 12.2205 14.2097 12.249 14.0292 12.2215C13.6497 12.1628 12.8522 11.8511 11.5432 10.5495L10.5733 11.5248ZM9.14332 2.70646C8.20832 1.4598 6.37132 1.2618 5.25573 2.37096L6.22465 3.3463C6.71232 2.86138 7.57765 2.9118 8.0424 3.53238L9.14332 2.70646ZM4.35648 5.72688C4.33815 5.40971 4.4839 5.07788 4.7864 4.77721L3.81565 3.80188C3.3234 4.29138 2.93565 4.98438 2.9824 5.80388L4.35648 5.72688ZM17.8498 16.7819C17.5987 17.033 17.3273 17.1742 17.0569 17.199L17.1843 18.5675C17.8581 18.5043 18.409 18.1651 18.8197 17.7572L17.8498 16.7819ZM10.0893 7.58313C10.9922 6.68571 11.0592 5.26763 10.2992 4.25196L9.19832 5.07605C9.56774 5.57013 9.51273 6.21821 9.1204 6.60963L10.0893 7.58313ZM18.816 13.5955C19.5649 14.0025 19.6813 14.9614 19.1524 15.4875L20.1222 16.462C21.3506 15.24 20.972 13.2023 19.4714 12.3874L18.816 13.5955ZM15.6617 12.8173C16.0137 12.4671 16.5802 12.381 17.0642 12.6431L17.7206 11.4359C16.7269 10.895 15.4949 11.0445 14.6919 11.842L15.6617 12.8173Z" fill="#57C13F"/>
</svg>
