<svg width="30" height="30" viewBox="0 0 30 30" fill="none" xmlns="http://www.w3.org/2000/svg">
<g id="Social Media Icon">
<rect x="0.5" y="0.5" width="29" height="29" rx="14.5" fill="#030C15" fill-opacity="0.29"/>
<rect x="0.5" y="0.5" width="29" height="29" rx="14.5" stroke="white"/>
<path id="Facebook logo" d="M20.4 9.6001H10.05C9.80107 9.6001 9.59998 9.80119 9.59998 10.0501V20.4001C9.59998 20.649 9.80107 20.8501 10.05 20.8501H20.4C20.6489 20.8501 20.85 20.649 20.85 20.4001V10.0501C20.85 9.80119 20.6489 9.6001 20.4 9.6001ZM19.1006 12.8837H18.202C17.4975 12.8837 17.3611 13.2184 17.3611 13.7106V14.7948H19.0429L18.8236 16.4921H17.3611V20.8501H15.6075V16.4935H14.1408V14.7948H15.6075V13.5432C15.6075 12.0906 16.4948 11.2988 17.7914 11.2988C18.4129 11.2988 18.9459 11.3453 19.102 11.3663V12.8837H19.1006Z" fill="white"/>
</g>
</svg>
