<svg width="30" height="30" viewBox="0 0 30 30" fill="none" xmlns="http://www.w3.org/2000/svg">
<g id="Social Media Icon">
<rect x="0.5" y="0.5" width="29" height="29" rx="14.5" fill="#030C15" fill-opacity="0.29"/>
<rect x="0.5" y="0.5" width="29" height="29" rx="14.5" stroke="white"/>
<path id="Instagram logo" d="M14.9996 13.1261C13.9674 13.1261 13.125 13.9684 13.125 15.0006C13.125 16.0328 13.9674 16.8751 14.9996 16.8751C16.0317 16.8751 16.8741 16.0328 16.8741 15.0006C16.8741 13.9684 16.0317 13.1261 14.9996 13.1261ZM20.6217 15.0006C20.6217 14.2243 20.6288 13.4551 20.5852 12.6803C20.5416 11.7803 20.3363 10.9815 19.6781 10.3234C19.0186 9.66388 18.2213 9.45997 17.3213 9.41638C16.545 9.37278 15.7758 9.37981 15.001 9.37981C14.2247 9.37981 13.4555 9.37278 12.6806 9.41638C11.7806 9.45997 10.9819 9.66528 10.3238 10.3234C9.66424 10.9829 9.46034 11.7803 9.41674 12.6803C9.37315 13.4565 9.38018 14.2257 9.38018 15.0006C9.38018 15.7754 9.37315 16.5461 9.41674 17.3209C9.46034 18.2209 9.66565 19.0197 10.3238 19.6778C10.9833 20.3373 11.7806 20.5412 12.6806 20.5848C13.4569 20.6284 14.2261 20.6214 15.001 20.6214C15.7772 20.6214 16.5464 20.6284 17.3213 20.5848C18.2213 20.5412 19.02 20.3359 19.6781 19.6778C20.3377 19.0182 20.5416 18.2209 20.5852 17.3209C20.6302 16.5461 20.6217 15.7768 20.6217 15.0006ZM14.9996 17.8848C13.4035 17.8848 12.1153 16.5967 12.1153 15.0006C12.1153 13.4045 13.4035 12.1164 14.9996 12.1164C16.5956 12.1164 17.8838 13.4045 17.8838 15.0006C17.8838 16.5967 16.5956 17.8848 14.9996 17.8848ZM18.0019 12.6718C17.6292 12.6718 17.3283 12.3709 17.3283 11.9983C17.3283 11.6256 17.6292 11.3247 18.0019 11.3247C18.3746 11.3247 18.6755 11.6256 18.6755 11.9983C18.6756 12.0867 18.6583 12.1744 18.6244 12.2562C18.5906 12.3379 18.541 12.4122 18.4784 12.4748C18.4159 12.5374 18.3416 12.587 18.2598 12.6208C18.178 12.6546 18.0904 12.672 18.0019 12.6718Z" fill="white"/>
</g>
</svg>
