<svg width="30" height="30" viewBox="0 0 30 30" fill="none" xmlns="http://www.w3.org/2000/svg">
<rect x="0.5" y="0.5" width="29" height="29" rx="14.5" fill="#030C15" fill-opacity="0.29"/>
<rect x="0.5" y="0.5" width="29" height="29" rx="14.5" stroke="white"/>
<g clip-path="url(#clip0_120_234)">
<path d="M20.5 15C20.5 18.0376 18.0376 20.5 15 20.5C11.9624 20.5 9.5 18.0376 9.5 15C9.5 11.9624 11.9624 9.5 15 9.5C18.0376 9.5 20.5 11.9624 20.5 15Z" fill="white" stroke="white"/>
<path d="M13.9 17.75C13.7056 17.75 13.7386 17.6766 13.6716 17.4915L13.1 15.6104L17.5 13" fill="#F6F6F6"/>
<path d="M13.9 17.7499C14.05 17.7499 14.1163 17.6813 14.2 17.5999L15 16.822L14.0021 16.2202" fill="#F6F6F6"/>
<path d="M14.002 16.2204L16.42 18.0068C16.6959 18.1591 16.895 18.0802 16.9638 17.7507L17.948 13.1125C18.0488 12.7085 17.794 12.5252 17.53 12.6451L11.7505 14.8736C11.356 15.0319 11.3584 15.252 11.6786 15.35L13.1618 15.813L16.5954 13.6467C16.7575 13.5484 16.9063 13.6012 16.7842 13.7096" fill="#030C15" fill-opacity="0.29"/>
</g>
<defs>
<clipPath id="clip0_120_234">
<rect width="12" height="12" fill="white" transform="translate(9 9)"/>
</clipPath>
</defs>
</svg>
