<svg width="246" height="82" viewBox="0 0 246 82" fill="none" xmlns="http://www.w3.org/2000/svg">
<g id="Group 31 1" clip-path="url(#clip0_120_1453)">
<g id="Mask group">
<mask id="mask0_120_1453" style="mask-type:luminance" maskUnits="userSpaceOnUse" x="12" y="12" width="72" height="70">
<g id="Group">
<path id="Vector" d="M12.1211 12.9805H83.4547V81.6977H12.1211V12.9805Z" fill="white"/>
</g>
</mask>
<g mask="url(#mask0_120_1453)">
<g id="Group_2">
<path id="Vector_2" d="M43.6398 14.9264L12.7764 41.7263V81.7486H82.7937V41.7263L51.9302 14.9264C49.5498 12.8579 46.0203 12.8579 43.6398 14.9264Z" fill="#57C13F"/>
</g>
</g>
</g>
<g id="Mask group_2">
<mask id="mask1_120_1453" style="mask-type:luminance" maskUnits="userSpaceOnUse" x="0" y="0" width="96" height="44">
<g id="Group_3">
<path id="Vector_3" d="M0 0H95.682V43.7296H0V0Z" fill="white"/>
</g>
</mask>
<g mask="url(#mask1_120_1453)">
<g id="Group_4">
<path id="Vector_4" d="M93.7531 36.6499L77.6606 22.6748C77.7535 22.3492 77.8039 22.0076 77.8039 21.6526V9.31091C77.8039 7.22104 76.1187 5.52353 74.0382 5.52353C71.9576 5.52353 70.2725 7.22104 70.2725 9.31091V16.2584L54.3896 2.47015C50.6239 -0.802105 44.9448 -0.802104 41.1791 2.46748L1.81557 36.6499C0.239226 38.0165 0.0667292 40.4079 1.42546 41.9934C2.7842 43.5761 5.16198 43.7523 6.73568 42.3857L46.1018 8.20325C47.0599 7.36784 48.5088 7.36784 49.4668 8.20325L88.833 42.3857C89.5442 43.0023 90.42 43.3065 91.2904 43.3039C92.3492 43.3039 93.4001 42.8608 94.1432 41.9934C95.5046 40.4079 95.3294 38.0165 93.7531 36.6499Z" fill="#004D73"/>
</g>
</g>
</g>
<path id="Vector_5" d="M45.8476 45.0443C47.8777 45.0443 50.1944 47.3718 50.1944 49.4163C50.1944 49.499 50.2608 49.5684 50.3457 49.5684C50.428 49.5684 50.4943 49.499 50.4943 49.4163C50.4943 47.3718 52.8111 45.0443 54.8412 45.0443C54.9261 45.0443 54.9925 44.975 54.9925 44.8922C54.9925 44.8095 54.9261 44.7401 54.8412 44.7401C52.8111 44.7401 50.4943 42.4126 50.4943 40.3681C50.4943 40.2854 50.428 40.2188 50.3457 40.2188C50.2608 40.2188 50.1944 40.2854 50.1944 40.3681C50.1944 42.4126 47.8777 44.7401 45.8476 44.7401C45.7653 44.7401 45.6963 44.8095 45.6963 44.8922C45.6963 44.975 45.7653 45.0443 45.8476 45.0443Z" fill="white"/>
<g id="Mask group_3">
<mask id="mask2_120_1453" style="mask-type:luminance" maskUnits="userSpaceOnUse" x="55" y="32" width="9" height="9">
<g id="Group_5">
<path id="Vector_6" d="M55.6016 32.8047H63.754V40.3127H55.6016V32.8047Z" fill="white"/>
</g>
</mask>
<g mask="url(#mask2_120_1453)">
<g id="Group_6">
<path id="Vector_7" d="M56.3974 36.405C57.8569 36.405 59.5182 38.0759 59.5182 39.5438C59.5182 39.6266 59.5845 39.6933 59.6695 39.6933C59.7517 39.6933 59.8181 39.6266 59.8181 39.5438C59.8181 38.0759 61.482 36.405 62.9389 36.405C63.0212 36.405 63.0902 36.3383 63.0902 36.2529C63.0902 36.1702 63.0212 36.1034 62.9389 36.1034C61.482 36.1034 59.8181 34.4299 59.8181 32.9646C59.8181 32.8792 59.7517 32.8125 59.6695 32.8125C59.5845 32.8125 59.5182 32.8792 59.5182 32.9646C59.5182 34.4299 57.8569 36.1034 56.3974 36.1034C56.3151 36.1034 56.2461 36.1702 56.2461 36.2529C56.2461 36.3383 56.3151 36.405 56.3974 36.405Z" fill="white"/>
</g>
</g>
</g>
<path id="Vector_8" d="M58.0839 48.2579C57.999 48.2579 57.9326 48.3246 57.9326 48.4073C57.9326 48.4928 57.999 48.5595 58.0839 48.5595C60.8491 48.5595 64.0071 51.733 64.0071 54.5168C64.0071 54.5995 64.0735 54.6689 64.1557 54.6689C64.238 54.6689 64.307 54.5995 64.307 54.5168C64.307 51.733 67.4623 48.5595 70.2302 48.5595C70.3125 48.5595 70.3788 48.4928 70.3788 48.4073C70.3788 48.3246 70.3125 48.2579 70.2302 48.2579C67.4623 48.2579 64.307 45.0844 64.307 42.3006C64.307 42.2152 64.238 42.1484 64.1557 42.1484C64.0735 42.1484 64.0071 42.2152 64.0071 42.3006C64.0071 45.0844 60.8491 48.2579 58.0839 48.2579Z" fill="white"/>
<path id="Vector_9" d="M33.4518 42.793C32.8388 42.793 32.3398 43.2947 32.3398 43.9113V46.6738C32.3398 47.1115 32.6928 47.4665 33.128 47.4665H38.3215C38.7567 47.4665 39.1096 47.1115 39.1096 46.6738V43.9113C39.1096 43.2947 38.6107 42.793 37.9977 42.793H33.4518Z" fill="white"/>
<path id="Vector_10" d="M26.5067 47.5761C26.6632 47.5761 26.8198 47.5307 26.9604 47.4373C28.5686 46.383 31.2755 43.6793 32.3609 40.7033C31.4851 39.4275 29.8557 39.3074 29.2825 39.3047C28.7491 41.6641 26.8835 44.6481 26.0767 45.8118L25.8326 46.1668C25.5858 46.5298 25.6229 47.0156 25.9228 47.3252C26.082 47.4906 26.2943 47.5761 26.5067 47.5761Z" fill="white"/>
<path id="Vector_11" d="M27.3713 35.7376H28.3346V37.1975H27.3713V35.7376ZM26.5831 38.783H29.1228C29.1334 38.783 29.1413 38.7803 29.152 38.7803C29.1546 38.7803 29.1573 38.783 29.1626 38.783C29.3006 38.7749 32.6311 38.6575 33.3343 41.6548C33.4166 42.0125 33.735 42.2661 34.1013 42.2661H37.1292C37.5273 42.2661 37.8617 41.9698 37.9121 41.5721C38.0687 40.315 39.0452 40.0614 41.0409 39.992C41.9511 39.9627 42.6703 39.936 43.0179 39.3568C43.1268 39.1753 43.2727 38.799 43.0339 38.2999C41.8981 35.9404 39.2045 34.1895 36.3304 33.9413C33.7669 33.7224 29.5049 34.1121 29.0856 34.1522H26.5831C26.1479 34.1522 25.7949 34.5071 25.7949 34.9449V37.9902C25.7949 38.428 26.1479 38.783 26.5831 38.783Z" fill="white"/>
<g id="Mask group_4">
<mask id="mask3_120_1453" style="mask-type:luminance" maskUnits="userSpaceOnUse" x="25" y="47" width="23" height="35">
<g id="Group_7">
<path id="Vector_12" d="M25.0283 47.8281H47.4474V81.9999H25.0283V47.8281Z" fill="white"/>
</g>
</mask>
<g mask="url(#mask3_120_1453)">
<g id="Group_8">
<path id="Vector_13" d="M45.633 80.5683C48.7432 71.9366 47.2836 63.3236 41.5249 56.3173C40.0016 54.465 40.1449 52.6394 40.397 51.0727C40.7155 49.1082 39.3116 48.2061 38.5261 48.0033C38.4598 47.9846 38.3961 47.9766 38.3297 47.9766H33.1283C32.9824 47.9766 32.8391 48.0166 32.7144 48.094C31.8731 48.6171 31.3742 49.247 31.2309 49.9703C31.0106 51.0887 31.6926 52.0362 32.1438 52.6634C32.173 52.7008 32.2048 52.7461 32.234 52.7888C31.3317 53.9072 31.5361 55.2844 32.1173 56.36C31.5838 57.022 31.1247 58.1056 31.4777 59.4801C28.5585 61.3698 26.7566 63.3236 25.9738 65.4401C23.7791 71.3948 26.4329 78.3049 27.3033 80.5736L27.359 80.7097C27.712 81.6359 28.4922 82.2097 29.3945 82.2097H43.5524C44.4732 82.2097 45.2614 81.6092 45.6091 80.6403L45.633 80.5683Z" fill="white"/>
</g>
</g>
</g>
<g id="Mask group_5">
<mask id="mask4_120_1453" style="mask-type:luminance" maskUnits="userSpaceOnUse" x="46" y="70" width="26" height="9">
<g id="Group_9">
<path id="Vector_14" d="M46.8594 70.3789H71.6696V78.2606H46.8594V70.3789Z" fill="white"/>
</g>
</mask>
<g mask="url(#mask4_120_1453)">
<g id="Group_10">
<path id="Vector_15" d="M56.7996 71.2645V72.8739C56.7996 73.6159 56.1998 74.2218 55.4594 74.2218H53.4081C52.6703 74.2218 52.0679 73.6159 52.0679 72.8739V71.2645H47.8139C47.8617 73.5572 47.583 75.8926 46.9727 78.2414H71.8014V70.4531C71.2096 70.9576 70.448 71.2645 69.612 71.2645H56.7996Z" fill="white"/>
</g>
</g>
</g>
<path id="Vector_16" d="M53.2695 72.8753C53.2695 72.9527 53.3306 73.0141 53.4075 73.0141H55.4589C55.5359 73.0141 55.5969 72.9527 55.5969 72.8753V69.0372C55.5969 68.9598 55.5359 68.8984 55.4589 68.8984H53.4075C53.3306 68.8984 53.2695 68.9598 53.2695 69.0372V70.6573V70.66V70.6627V72.8753Z" fill="white"/>
<g id="Mask group_6">
<mask id="mask5_120_1453" style="mask-type:luminance" maskUnits="userSpaceOnUse" x="43" y="52" width="29" height="19">
<g id="Group_11">
<path id="Vector_17" d="M43.4199 52.8203H71.6694V70.1077H43.4199V52.8203Z" fill="white"/>
</g>
</mask>
<g mask="url(#mask5_120_1453)">
<g id="Group_12">
<path id="Vector_18" d="M58.5277 57.9205H50.3434V56.2844C50.3434 55.7426 50.7813 55.3049 51.3174 55.3049H57.5511C58.0898 55.3049 58.5277 55.7426 58.5277 56.2844V57.9205ZM65.9769 57.9205H60.9294V56.2844C60.9294 54.4107 59.4141 52.8867 57.5511 52.8867H51.3174C49.4544 52.8867 47.9391 54.4107 47.9391 56.2844V57.9205H43.4648C46.0204 61.6572 47.4614 65.7702 47.764 70.054H52.0684V69.0344C52.0684 68.2924 52.6708 67.6866 53.4086 67.6866H55.4599C56.2003 67.6866 56.8001 68.2924 56.8001 69.0344V70.054H69.6125C70.8147 70.054 71.7939 69.0745 71.8019 67.8654V63.7818C71.8019 60.5495 69.1906 57.9205 65.9769 57.9205Z" fill="white"/>
</g>
</g>
</g>
<g id="Mask group_7">
<mask id="mask6_120_1453" style="mask-type:luminance" maskUnits="userSpaceOnUse" x="45" y="78" width="27" height="5">
<g id="Group_13">
<path id="Vector_19" d="M45.1387 78.7539H71.6685V82.0021H45.1387V78.7539Z" fill="white"/>
</g>
</mask>
<g mask="url(#mask6_120_1453)">
<g id="Group_14">
<path id="Vector_20" d="M46.1978 80.776L46.1766 80.8401C45.9723 81.4113 45.6379 81.8757 45.2266 82.212H68.9168C70.5091 82.212 71.8015 80.9095 71.8015 79.3081V78.8438H46.8109C46.6278 79.4897 46.4314 80.1328 46.1978 80.776Z" fill="white"/>
</g>
</g>
</g>
<path id="Vector_21" d="M115.312 46.1229H111.688V39.4989C110.68 39.8509 109.752 40.1149 108.904 40.2909C108.072 40.4669 107.232 40.5549 106.384 40.5549C104.784 40.5549 103.528 40.1709 102.616 39.4029C101.72 38.6189 101.272 37.5069 101.272 36.0669V28.9869H104.896V35.0349C104.896 35.8669 105.088 36.4909 105.472 36.9069C105.856 37.3229 106.504 37.5309 107.416 37.5309C108.088 37.5309 108.76 37.4589 109.432 37.3149C110.104 37.1709 110.856 36.9549 111.688 36.6669V28.9869H115.312V46.1229ZM122.789 38.2029C122.789 38.4749 122.773 38.8109 122.741 39.2109C122.725 39.6109 122.701 40.0189 122.669 40.4349C122.653 40.8509 122.629 41.2189 122.597 41.5389C122.565 41.8589 122.541 42.0829 122.525 42.2109L128.573 33.0189H132.869V46.1229H129.413V40.8909C129.413 40.4589 129.429 39.9869 129.461 39.4749C129.493 38.9469 129.525 38.4589 129.557 38.0109C129.605 37.5469 129.637 37.1949 129.653 36.9549L123.629 46.1229H119.333V33.0189H122.789V38.2029ZM141.934 46.3629C140.638 46.3629 139.534 46.1309 138.622 45.6669C137.71 45.1869 137.014 44.4509 136.534 43.4589C136.054 42.4669 135.814 41.1949 135.814 39.6429C135.814 38.0429 136.086 36.7389 136.63 35.7309C137.174 34.7229 137.926 33.9789 138.886 33.4989C139.862 33.0189 140.982 32.7789 142.246 32.7789C143.142 32.7789 143.918 32.8669 144.574 33.0429C145.246 33.2189 145.83 33.4269 146.326 33.6669L145.27 36.4269C144.71 36.2029 144.182 36.0189 143.686 35.8749C143.206 35.7309 142.726 35.6589 142.246 35.6589C141.622 35.6589 141.102 35.8109 140.686 36.1149C140.27 36.4029 139.958 36.8429 139.75 37.4349C139.558 38.0109 139.462 38.7389 139.462 39.6189C139.462 40.4829 139.566 41.2029 139.774 41.7789C139.998 42.3389 140.318 42.7629 140.734 43.0509C141.15 43.3229 141.654 43.4589 142.246 43.4589C142.998 43.4589 143.662 43.3629 144.238 43.1709C144.814 42.9629 145.374 42.6829 145.918 42.3309V45.3789C145.374 45.7309 144.798 45.9789 144.19 46.1229C143.598 46.2829 142.846 46.3629 141.934 46.3629ZM159.783 35.7069H155.487V46.1229H151.911V35.7069H147.615V33.0189H159.783V35.7069ZM165.656 38.2029C165.656 38.4749 165.64 38.8109 165.608 39.2109C165.592 39.6109 165.568 40.0189 165.536 40.4349C165.52 40.8509 165.496 41.2189 165.464 41.5389C165.432 41.8589 165.408 42.0829 165.392 42.2109L171.44 33.0189H175.736V46.1229H172.28V40.8909C172.28 40.4589 172.296 39.9869 172.328 39.4749C172.36 38.9469 172.392 38.4589 172.424 38.0109C172.472 37.5469 172.504 37.1949 172.52 36.9549L166.496 46.1229H162.2V33.0189H165.656V38.2029ZM192.026 27.3789C191.946 28.2109 191.714 28.9469 191.33 29.5869C190.946 30.2109 190.346 30.6989 189.53 31.0509C188.714 31.4029 187.618 31.5789 186.242 31.5789C184.834 31.5789 183.73 31.4109 182.93 31.0749C182.146 30.7229 181.586 30.2349 181.25 29.6109C180.914 28.9869 180.714 28.2429 180.65 27.3789H183.842C183.922 28.2589 184.146 28.8429 184.514 29.1309C184.882 29.4189 185.482 29.5629 186.314 29.5629C187.002 29.5629 187.562 29.4109 187.994 29.1069C188.442 28.7869 188.706 28.2109 188.786 27.3789H192.026ZM182.93 38.2029C182.93 38.4749 182.914 38.8109 182.882 39.2109C182.866 39.6109 182.842 40.0189 182.81 40.4349C182.794 40.8509 182.77 41.2189 182.738 41.5389C182.706 41.8589 182.682 42.0829 182.666 42.2109L188.714 33.0189H193.01V46.1229H189.554V40.8909C189.554 40.4589 189.57 39.9869 189.602 39.4749C189.634 38.9469 189.666 38.4589 189.698 38.0109C189.746 37.5469 189.778 37.1949 189.794 36.9549L183.77 46.1229H179.474V33.0189H182.93V38.2029Z" fill="#030C15"/>
<path id="Vector_22" d="M215.398 33.0188V43.5068H217.318V50.8268H214.102V46.1228H205.294V50.8268H202.078V43.5068H203.182C203.758 42.6268 204.246 41.6268 204.646 40.5068C205.046 39.3708 205.366 38.1628 205.606 36.8828C205.846 35.6028 206.022 34.3148 206.134 33.0188H215.398ZM209.134 35.7068C209.006 36.6668 208.846 37.6028 208.654 38.5148C208.462 39.4108 208.222 40.2748 207.934 41.1068C207.662 41.9388 207.326 42.7388 206.926 43.5068H211.822V35.7068H209.134ZM223.128 33.0188V46.1228H219.552V33.0188H223.128ZM221.352 27.8828C221.88 27.8828 222.336 28.0108 222.72 28.2668C223.104 28.5068 223.296 28.9628 223.296 29.6348C223.296 30.2908 223.104 30.7468 222.72 31.0028C222.336 31.2588 221.88 31.3868 221.352 31.3868C220.808 31.3868 220.344 31.2588 219.96 31.0028C219.592 30.7468 219.408 30.2908 219.408 29.6348C219.408 28.9628 219.592 28.5068 219.96 28.2668C220.344 28.0108 220.808 27.8828 221.352 27.8828ZM243.376 33.0188V46.1228H240.04V39.6908C240.04 39.0508 240.048 38.4268 240.064 37.8188C240.096 37.2108 240.136 36.6508 240.184 36.1388H240.112L236.488 46.1228H233.8L230.128 36.1148H230.032C230.096 36.6428 230.136 37.2108 230.152 37.8188C230.184 38.4108 230.2 39.0668 230.2 39.7868V46.1228H226.864V33.0188H231.928L235.192 41.8988L238.504 33.0188H243.376Z" fill="#004D73"/>
<path id="Vector_23" d="M108.652 71.1227H107.14L102.618 66.0547V71.1227H101.358V61.1267H102.618V65.9707L107.028 61.1267H108.456L104.116 65.9847L108.652 71.1227ZM115.556 71.1227H114.31V64.6407H112.098C112.005 65.826 111.888 66.8387 111.748 67.6787C111.608 68.5094 111.431 69.186 111.216 69.7087C111.002 70.2314 110.745 70.614 110.446 70.8567C110.148 71.0994 109.798 71.2207 109.396 71.2207C109.275 71.2207 109.154 71.2114 109.032 71.1927C108.92 71.1834 108.827 71.16 108.752 71.1227V70.1987C108.808 70.2174 108.869 70.2314 108.934 70.2407C109 70.25 109.065 70.2547 109.13 70.2547C109.336 70.2547 109.522 70.1707 109.69 70.0027C109.858 69.8347 110.008 69.578 110.138 69.2327C110.278 68.8874 110.404 68.4534 110.516 67.9307C110.628 67.3987 110.726 66.7734 110.81 66.0547C110.894 65.336 110.969 64.524 111.034 63.6187H115.556V71.1227ZM119.17 63.6187V71.1227H117.938V63.6187H119.17ZM118.568 60.8047C118.755 60.8047 118.918 60.87 119.058 61.0007C119.207 61.122 119.282 61.318 119.282 61.5887C119.282 61.85 119.207 62.046 119.058 62.1767C118.918 62.3074 118.755 62.3727 118.568 62.3727C118.363 62.3727 118.19 62.3074 118.05 62.1767C117.91 62.046 117.84 61.85 117.84 61.5887C117.84 61.318 117.91 61.122 118.05 61.0007C118.19 60.87 118.363 60.8047 118.568 60.8047ZM122.779 63.6187V66.7407H126.853V63.6187H128.085V71.1227H126.853V67.7767H122.779V71.1227H121.547V63.6187H122.779ZM131.693 63.6187V71.1227H130.461V63.6187H131.693ZM131.091 60.8047C131.278 60.8047 131.441 60.87 131.581 61.0007C131.731 61.122 131.805 61.318 131.805 61.5887C131.805 61.85 131.731 62.046 131.581 62.1767C131.441 62.3074 131.278 62.3727 131.091 62.3727C130.886 62.3727 130.713 62.3074 130.573 62.1767C130.433 62.046 130.363 61.85 130.363 61.5887C130.363 61.318 130.433 61.122 130.573 61.0007C130.713 60.87 130.886 60.8047 131.091 60.8047ZM135.303 63.6187V66.7407H139.377V63.6187H140.609V71.1227H139.377V67.7767H135.303V71.1227H134.071V63.6187H135.303ZM147.563 63.6187V64.6547H144.217V71.1227H142.985V63.6187H147.563ZM155.429 67.3567C155.429 67.982 155.345 68.5374 155.177 69.0227C155.018 69.4987 154.785 69.9047 154.477 70.2407C154.178 70.5767 153.81 70.8334 153.371 71.0107C152.942 71.1787 152.461 71.2627 151.929 71.2627C151.434 71.2627 150.977 71.1787 150.557 71.0107C150.137 70.8334 149.773 70.5767 149.465 70.2407C149.157 69.9047 148.914 69.4987 148.737 69.0227C148.569 68.5374 148.485 67.982 148.485 67.3567C148.485 66.526 148.625 65.826 148.905 65.2567C149.185 64.678 149.586 64.2394 150.109 63.9407C150.632 63.6327 151.252 63.4787 151.971 63.4787C152.652 63.4787 153.25 63.6327 153.763 63.9407C154.286 64.2394 154.692 64.678 154.981 65.2567C155.28 65.826 155.429 66.526 155.429 67.3567ZM149.759 67.3567C149.759 67.9447 149.834 68.458 149.983 68.8967C150.142 69.326 150.384 69.6574 150.711 69.8907C151.038 70.124 151.453 70.2407 151.957 70.2407C152.461 70.2407 152.876 70.124 153.203 69.8907C153.53 69.6574 153.768 69.326 153.917 68.8967C154.076 68.458 154.155 67.9447 154.155 67.3567C154.155 66.7594 154.076 66.2507 153.917 65.8307C153.758 65.4107 153.516 65.0887 153.189 64.8647C152.872 64.6314 152.456 64.5147 151.943 64.5147C151.178 64.5147 150.622 64.7667 150.277 65.2707C149.932 65.7747 149.759 66.47 149.759 67.3567ZM163.415 65.5087C163.415 65.9754 163.275 66.3394 162.995 66.6007C162.715 66.862 162.356 67.0394 161.917 67.1327V67.1887C162.384 67.254 162.79 67.422 163.135 67.6927C163.481 67.954 163.653 68.3647 163.653 68.9247C163.653 69.242 163.593 69.536 163.471 69.8067C163.359 70.0774 163.182 70.3107 162.939 70.5067C162.697 70.7027 162.384 70.8567 162.001 70.9687C161.619 71.0714 161.157 71.1227 160.615 71.1227H157.381V63.6187H160.601C161.133 63.6187 161.609 63.6794 162.029 63.8007C162.459 63.9127 162.795 64.1087 163.037 64.3887C163.289 64.6594 163.415 65.0327 163.415 65.5087ZM162.379 68.9247C162.379 68.4954 162.216 68.1874 161.889 68.0007C161.563 67.814 161.082 67.7207 160.447 67.7207H158.613V70.1287H160.475C161.091 70.1287 161.563 70.04 161.889 69.8627C162.216 69.676 162.379 69.3634 162.379 68.9247ZM162.169 65.6627C162.169 65.308 162.039 65.0514 161.777 64.8927C161.525 64.7247 161.11 64.6407 160.531 64.6407H158.613V66.6987H160.307C160.914 66.6987 161.376 66.6147 161.693 66.4467C162.011 66.2787 162.169 66.0174 162.169 65.6627ZM166.68 63.6187V71.1227H165.448V63.6187H166.68ZM166.078 60.8047C166.264 60.8047 166.428 60.87 166.568 61.0007C166.717 61.122 166.792 61.318 166.792 61.5887C166.792 61.85 166.717 62.046 166.568 62.1767C166.428 62.3074 166.264 62.3727 166.078 62.3727C165.872 62.3727 165.7 62.3074 165.56 62.1767C165.42 62.046 165.35 61.85 165.35 61.5887C165.35 61.318 165.42 61.122 165.56 61.0007C165.7 60.87 165.872 60.8047 166.078 60.8047ZM180.171 63.6187V71.1227H178.939V64.6687H175.061V71.1227H173.829V63.6187H180.171ZM189.089 67.3567C189.089 67.982 189.005 68.5374 188.837 69.0227C188.678 69.4987 188.445 69.9047 188.137 70.2407C187.838 70.5767 187.47 70.8334 187.031 71.0107C186.602 71.1787 186.121 71.2627 185.589 71.2627C185.094 71.2627 184.637 71.1787 184.217 71.0107C183.797 70.8334 183.433 70.5767 183.125 70.2407C182.817 69.9047 182.574 69.4987 182.397 69.0227C182.229 68.5374 182.145 67.982 182.145 67.3567C182.145 66.526 182.285 65.826 182.565 65.2567C182.845 64.678 183.246 64.2394 183.769 63.9407C184.292 63.6327 184.912 63.4787 185.631 63.4787C186.312 63.4787 186.91 63.6327 187.423 63.9407C187.946 64.2394 188.352 64.678 188.641 65.2567C188.94 65.826 189.089 66.526 189.089 67.3567ZM183.419 67.3567C183.419 67.9447 183.494 68.458 183.643 68.8967C183.802 69.326 184.044 69.6574 184.371 69.8907C184.698 70.124 185.113 70.2407 185.617 70.2407C186.121 70.2407 186.536 70.124 186.863 69.8907C187.19 69.6574 187.428 69.326 187.577 68.8967C187.736 68.458 187.815 67.9447 187.815 67.3567C187.815 66.7594 187.736 66.2507 187.577 65.8307C187.418 65.4107 187.176 65.0887 186.849 64.8647C186.532 64.6314 186.116 64.5147 185.603 64.5147C184.838 64.5147 184.282 64.7667 183.937 65.2707C183.592 65.7747 183.419 66.47 183.419 67.3567ZM194.052 71.2627C193.389 71.2627 192.796 71.1274 192.274 70.8567C191.76 70.586 191.354 70.166 191.056 69.5967C190.766 69.0274 190.622 68.2994 190.622 67.4127C190.622 66.4887 190.776 65.7374 191.084 65.1587C191.392 64.58 191.807 64.1554 192.33 63.8847C192.862 63.614 193.464 63.4787 194.136 63.4787C194.518 63.4787 194.887 63.5207 195.242 63.6047C195.596 63.6794 195.886 63.7727 196.11 63.8847L195.732 64.9067C195.508 64.8227 195.246 64.7434 194.948 64.6687C194.649 64.594 194.369 64.5567 194.108 64.5567C193.604 64.5567 193.188 64.664 192.862 64.8787C192.535 65.0934 192.292 65.4107 192.134 65.8307C191.975 66.2507 191.896 66.7734 191.896 67.3987C191.896 67.996 191.975 68.5047 192.134 68.9247C192.292 69.3447 192.53 69.662 192.848 69.8767C193.165 70.0914 193.562 70.1987 194.038 70.1987C194.448 70.1987 194.808 70.1567 195.116 70.0727C195.433 69.9887 195.722 69.886 195.984 69.7647V70.8567C195.732 70.9874 195.452 71.0854 195.144 71.1507C194.845 71.2254 194.481 71.2627 194.052 71.2627ZM203.48 71.1227H202.234V64.6407H200.022C199.929 65.826 199.812 66.8387 199.672 67.6787C199.532 68.5094 199.355 69.186 199.14 69.7087C198.925 70.2314 198.669 70.614 198.37 70.8567C198.071 71.0994 197.721 71.2207 197.32 71.2207C197.199 71.2207 197.077 71.2114 196.956 71.1927C196.844 71.1834 196.751 71.16 196.676 71.1227V70.1987C196.732 70.2174 196.793 70.2314 196.858 70.2407C196.923 70.25 196.989 70.2547 197.054 70.2547C197.259 70.2547 197.446 70.1707 197.614 70.0027C197.782 69.8347 197.931 69.578 198.062 69.2327C198.202 68.8874 198.328 68.4534 198.44 67.9307C198.552 67.3987 198.65 66.7734 198.734 66.0547C198.818 65.336 198.893 64.524 198.958 63.6187H203.48V71.1227ZM204.686 63.6187H206.002L207.626 67.8887C207.719 68.1407 207.803 68.3834 207.878 68.6167C207.962 68.85 208.037 69.0787 208.102 69.3027C208.167 69.5174 208.219 69.7274 208.256 69.9327H208.312C208.368 69.6994 208.457 69.396 208.578 69.0227C208.699 68.64 208.825 68.2574 208.956 67.8747L210.482 63.6187H211.812L208.578 72.1587C208.401 72.6254 208.191 73.0314 207.948 73.3767C207.715 73.7314 207.425 74.002 207.08 74.1887C206.744 74.3847 206.333 74.4827 205.848 74.4827C205.624 74.4827 205.428 74.4687 205.26 74.4407C205.092 74.422 204.947 74.3987 204.826 74.3707V73.3907C204.929 73.4094 205.05 73.428 205.19 73.4467C205.339 73.4654 205.493 73.4747 205.652 73.4747C205.941 73.4747 206.189 73.4187 206.394 73.3067C206.609 73.204 206.791 73.05 206.94 72.8447C207.089 72.6487 207.215 72.4154 207.318 72.1447L207.71 71.1507L204.686 63.6187ZM217.577 63.6187V64.6547H214.231V71.1227H212.999V63.6187H217.577ZM220.217 68.1967C220.217 68.2807 220.213 68.402 220.203 68.5607C220.203 68.71 220.199 68.8734 220.189 69.0507C220.18 69.2187 220.171 69.382 220.161 69.5407C220.152 69.69 220.143 69.8114 220.133 69.9047L224.151 63.6187H225.663V71.1227H224.515V66.6987C224.515 66.5494 224.515 66.3534 224.515 66.1107C224.525 65.868 224.534 65.63 224.543 65.3967C224.553 65.154 224.562 64.972 224.571 64.8507L220.581 71.1227H219.055V63.6187H220.217V68.1967Z" fill="#030C15"/>
</g>
<defs>
<clipPath id="clip0_120_1453">
<rect width="246" height="82" fill="white"/>
</clipPath>
</defs>
</svg>
